HIERARCHY
ROOT Hips
{
	OFFSET	0.00	0.00	0.00
	CHANNELS 6 Xposition Yposition Zposition Zrotation Xrotation Yrotation
	JOINT Chest
	{
		OFFSET	0.00	6.28	0.00
		CHANNELS 3 Zrotation Xrotation Yrotation
		JOINT Neck
		{
			OFFSET	0.00	14.30	0.00
			CHANNELS 3 Zrotation Xrotation Yrotation
			JOINT Head
			{
				OFFSET	0.00	2.64	0.00
				CHANNELS 3 Zrotation Xrotation Yrotation
				End Site
				{
					OFFSET	0.00	4.50	0.00
				}
			}
		}
		JOINT LeftCollar
		{
			OFFSET	1.12	11.36	1.87
			CHANNELS 3 Zrotation Xrotation Yrotation
			JOINT LeftUpArm
			{
				OFFSET	4.57	2.02	-1.82
				CHANNELS 3 Zrotation Xrotation Yrotation
				JOINT LeftLowArm
				{
					OFFSET	0.22	-10.35	-0.06
					CHANNELS 3 Zrotation Xrotation Yrotation
					JOINT LeftHand
					{
						OFFSET	0.09	-10.35	2.18
						CHANNELS 3 Zrotation Xrotation Yrotation
						End Site
						{
							OFFSET	0.13	-6.69	1.71
						}
					}
				}
			}
		}
		JOINT RightCollar
		{
			OFFSET	-1.12	11.36	1.87
			CHANNELS 3 Zrotation Xrotation Yrotation
			JOINT RightUpArm
			{
				OFFSET	-4.70	2.03	-1.82
				CHANNELS 3 Zrotation Xrotation Yrotation
				JOINT RightLowArm
				{
					OFFSET	-0.26	-10.43	-0.06
					CHANNELS 3 Zrotation Xrotation Yrotation
					JOINT RightHand
					{
						OFFSET	0.00	-10.26	2.18
						CHANNELS 3 Zrotation Xrotation Yrotation
						End Site
						{
							OFFSET	-0.14	-6.67	1.71
						}
					}
				}
			}
		}
	}
	JOINT LeftUpLeg
	{
		OFFSET	3.91	0.00	0.00
		CHANNELS 3 Zrotation Xrotation Yrotation
		JOINT LeftLowLeg
		{
			OFFSET	-0.44	-17.57	1.70
			CHANNELS 3 Zrotation Xrotation Yrotation
			JOINT LeftFoot
			{
				OFFSET	-0.04	-17.20	-1.48
				CHANNELS 3 Zrotation Xrotation Yrotation
				End Site
				{
					OFFSET	0.00	-3.93	5.23
				}
			}
		}
	}
	JOINT RightUpLeg
	{
		OFFSET	-3.91	0.00	0.00
		CHANNELS 3 Zrotation Xrotation Yrotation
		JOINT RightLowLeg
		{
			OFFSET	0.44	-17.62	1.70
			CHANNELS 3 Zrotation Xrotation Yrotation
			JOINT RightFoot
			{
				OFFSET	0.00	-17.14	-1.48
				CHANNELS 3 Zrotation Xrotation Yrotation
				End Site
				{
					OFFSET	0.00	-4.04	5.23
				}
			}
		}
	}
}
MOTION
Frames: 18
Frame Time: 0.04166667
218.53	5.00	1.16	6.63	0.71	86.67	3.67	-5.73	-1.57	-1.04	17.63	-7.88	-9.15	17.70	0.23	-6.96	-3.89	-8.15	25.32	2.16	-63.00	-12.53	-17.44	19.54	-4.69	2.50	-1.00	4.77	-2.21	8.70	-25.28	11.71	32.35	10.38	-4.11	-9.63	7.04	2.49	1.51	-3.21	7.63	12.58	-2.63	10.79	-5.64	2.42	-9.19	-0.01	-8.77	-15.57	-17.38	0.50	39.69	-9.16	-11.26	2.42	6.72
219.35	4.99	1.12	6.38	0.64	86.54	3.33	-5.57	-2.06	-0.26	17.36	-7.81	-9.33	17.36	0.18	-6.48	-3.23	-8.53	25.57	0.44	-64.00	-12.11	-18.34	19.56	-4.28	2.50	-0.91	5.45	-2.04	8.17	-25.63	12.01	34.71	9.99	-4.98	-9.52	7.83	2.51	1.67	-3.32	8.61	11.87	-2.60	10.52	-5.54	2.37	-9.22	-0.01	-7.54	-14.18	-19.22	0.91	29.63	-7.27	-9.38	3.06	6.53
220.19	4.97	1.10	6.17	0.68	86.43	2.97	-5.45	-2.49	0.33	17.15	-7.78	-9.42	17.16	0.14	-5.88	-2.96	-8.91	25.58	-0.95	-65.09	-11.82	-19.43	20.01	-4.09	2.49	-0.87	5.85	-2.16	7.84	-25.78	12.69	35.10	10.17	-5.35	-9.81	7.65	2.51	1.64	-3.58	9.99	12.07	-2.56	9.72	-5.43	2.20	-9.46	-0.01	-5.97	-11.89	-22.03	1.34	18.08	-3.35	-7.45	5.41	6.52
221.24	4.94	1.09	5.92	0.74	86.26	2.67	-5.59	-2.66	0.81	17.12	-7.82	-9.56	17.10	0.13	-5.41	-2.80	-9.34	25.64	-2.12	-66.48	-11.50	-20.43	20.44	-4.28	2.50	-0.91	6.15	-2.32	7.61	-25.89	13.70	35.24	10.46	-5.60	-10.27	8.27	2.52	1.77	-3.79	11.23	12.18	-2.50	9.24	-5.11	1.69	-9.77	-0.03	-3.39	-8.05	-24.60	1.69	3.06	1.31	-3.02	11.24	5.91
221.96	4.92	1.12	6.01	0.99	86.15	2.00	-5.27	-2.76	1.44	16.86	-7.91	-9.78	17.22	0.16	-5.05	-2.01	-9.41	26.16	-4.13	-68.16	-11.12	-21.53	20.96	-4.80	2.51	-1.02	6.82	-1.92	7.06	-26.33	13.90	36.10	10.71	-6.12	-10.72	8.48	2.53	1.81	-4.14	12.87	12.01	-2.43	8.64	-4.81	0.78	-9.68	-0.10	-1.53	-4.99	-24.53	1.78	-9.19	3.85	4.36	16.98	3.27
223.10	4.85	1.18	6.04	1.09	85.99	1.63	-5.37	-2.87	1.81	16.93	-7.84	-9.99	17.23	0.16	-4.42	-2.30	-9.84	25.98	-4.57	-69.42	-10.88	-22.40	21.37	-4.67	2.50	-0.99	6.89	-2.47	7.04	-26.15	15.28	36.51	10.94	-6.40	-11.13	9.01	2.55	1.93	-4.14	14.00	11.50	-2.38	9.13	-4.41	-0.25	-9.99	-0.17	-1.76	-6.58	-25.02	1.97	-9.18	5.92	8.75	12.70	2.12
224.08	4.77	1.26	6.28	1.26	85.97	1.07	-5.10	-3.01	2.28	16.77	-7.78	-10.19	17.19	0.16	-3.88	-2.10	-10.14	25.95	-5.44	-69.86	-10.50	-22.87	21.26	-5.06	2.51	-1.07	7.19	-2.64	6.72	-26.21	15.93	37.07	11.20	-6.71	-11.53	8.85	2.54	1.89	-4.10	15.27	10.86	-2.34	9.84	-3.98	-1.52	-10.11	-0.27	-1.30	-7.13	-27.33	2.15	-9.17	7.91	9.05	4.59	3.28
225.29	4.68	1.37	6.48	1.30	85.89	0.72	-5.09	-3.15	2.63	16.72	-7.59	-10.38	17.19	0.16	-3.53	-1.97	-10.47	26.05	-5.97	-70.75	-10.25	-23.70	21.64	-4.75	2.50	-1.01	7.41	-2.78	6.55	-26.34	16.56	37.78	11.45	-7.01	-11.96	9.16	2.55	1.96	-3.85	16.36	9.97	-2.29	10.87	-3.48	-3.15	-10.09	-0.39	-0.68	-7.25	-30.14	2.23	-9.17	8.77	11.70	-0.66	3.84
226.37	4.59	1.50	6.65	1.24	85.59	0.65	-5.33	-3.28	2.73	16.86	-7.25	-10.44	17.18	0.16	-3.24	-2.35	-10.84	25.95	-5.68	-71.94	-10.13	-24.66	22.44	-4.43	2.50	-0.94	7.33	-3.18	6.71	-26.25	17.39	37.88	11.51	-6.83	-11.97	9.26	2.56	1.98	-3.57	17.65	9.38	-2.19	11.62	-2.88	-4.95	-9.89	-0.51	0.10	-6.72	-30.95	2.12	-9.18	7.55	13.47	-2.90	4.20
227.14	4.51	1.64	7.08	1.21	85.25	0.49	-5.22	-3.41	2.88	16.77	-6.77	-10.55	17.25	0.18	-2.99	-2.45	-11.01	25.87	-5.63	-72.75	-9.96	-25.32	22.93	-4.54	2.50	-0.96	7.35	-3.36	6.68	-26.26	17.62	38.06	11.30	-6.61	-11.60	8.95	2.55	1.91	-3.41	19.21	8.59	-2.09	12.29	-2.32	-6.45	-9.09	-0.53	0.74	-5.20	-29.31	1.96	-9.20	5.82	11.40	-3.86	4.52
228.54	4.42	1.80	7.50	0.91	85.01	0.61	-5.53	-3.51	3.08	16.99	-6.48	-10.68	17.33	0.20	-2.67	-2.87	-11.50	25.56	-4.73	-73.58	-9.80	-25.92	23.40	-4.69	2.50	-1.00	7.29	-3.84	6.84	-26.10	18.46	37.93	11.05	-6.36	-11.27	9.28	2.56	1.98	-2.91	20.32	7.25	-1.93	13.87	-1.44	-8.15	-8.05	-0.49	1.51	-3.70	-28.14	1.98	-9.19	6.00	7.60	-2.07	4.44
229.81	4.37	2.00	7.88	0.47	84.91	0.88	-6.02	-3.65	3.22	17.22	-6.25	-10.87	17.56	0.24	-2.36	-3.31	-11.90	25.11	-3.67	-74.46	-9.64	-26.23	23.51	-4.98	2.51	-1.06	7.25	-4.30	6.91	-25.94	19.27	36.94	10.80	-5.89	-10.82	9.17	2.55	1.96	-2.16	21.30	6.00	-1.80	15.55	-0.81	-9.75	-6.54	-0.29	2.85	-2.70	-29.91	2.20	-9.16	8.53	1.54	2.17	4.77
230.93	4.37	2.22	8.34	-0.19	84.75	1.68	-6.41	-4.31	2.75	17.48	-5.43	-10.89	17.71	0.27	-2.48	-3.92	-11.79	24.58	-2.20	-74.67	-9.65	-25.95	23.28	-5.37	2.52	-1.14	6.80	-4.62	7.44	-25.70	19.74	36.26	10.43	-5.40	-10.27	9.43	2.56	2.01	-1.20	21.92	4.47	-1.73	17.69	-0.51	-10.96	-4.22	0.13	4.22	-1.26	-30.55	2.31	-9.14	9.85	-3.50	5.03	5.69
232.26	4.40	2.46	9.02	-0.96	84.28	2.50	-6.48	-4.66	2.43	17.69	-4.80	-10.90	17.73	0.28	-2.62	-4.24	-11.54	24.12	-0.88	-74.54	-9.72	-25.30	22.69	-5.69	2.52	-1.21	6.55	-4.77	7.86	-25.51	19.79	35.24	10.03	-4.70	-9.60	8.96	2.55	1.92	-0.35	22.54	3.09	-1.62	19.81	-0.10	-12.15	-0.92	0.87	5.36	0.57	-30.39	2.34	-9.13	10.24	-6.35	7.86	6.56
233.22	4.46	2.69	9.48	-1.74	83.76	3.39	-6.75	-4.85	2.07	17.91	-4.12	-10.90	17.83	0.30	-3.01	-4.31	-11.15	23.84	0.26	-74.26	-10.05	-24.32	22.16	-5.41	2.52	-1.15	6.36	-4.70	8.02	-25.47	19.38	34.52	9.70	-4.11	-9.13	9.24	2.56	1.97	0.56	22.47	1.28	-1.58	22.23	0.04	-14.31	3.42	2.16	6.24	2.43	-30.60	2.37	-9.12	10.52	-6.87	9.70	6.90
234.52	4.53	2.92	9.91	-2.55	83.19	4.38	-6.98	-4.96	1.60	18.13	-3.39	-10.94	17.81	0.30	-3.44	-4.65	-10.69	23.41	1.79	-73.62	-10.43	-23.04	21.49	-5.57	2.52	-1.18	5.95	-4.82	8.27	-25.36	19.08	34.39	9.49	-3.92	-8.89	9.50	2.57	2.03	1.57	21.99	-0.33	-1.70	24.88	-0.48	-16.95	8.31	4.06	7.23	4.61	-31.11	2.49	-9.09	12.02	-7.73	9.17	7.07
235.78	4.59	3.15	10.37	-3.33	82.74	5.22	-7.03	-5.04	1.22	18.32	-2.95	-10.99	17.73	0.28	-3.69	-5.02	-10.34	22.86	3.51	-72.22	-10.75	-21.52	20.54	-5.61	2.52	-1.19	5.57	-5.04	8.59	-25.29	18.82	34.83	9.56	-4.21	-9.06	9.85	2.58	2.10	2.68	21.08	-1.94	-1.95	27.95	-1.62	-20.03	13.24	6.60	7.54	5.88	-31.22	2.63	-6.60	12.77	-8.97	6.83	7.05
237.14	4.64	3.40	10.69	-3.87	82.57	5.49	-7.00	-5.00	1.18	18.37	-2.75	-10.90	17.66	0.27	-3.92	-4.83	-10.08	22.78	4.67	-70.45	-11.05	-20.16	19.71	-5.24	2.51	-1.11	5.71	-4.85	8.55	-25.54	17.98	35.08	9.68	-4.75	-9.30	9.55	2.57	2.04	3.93	19.36	-2.70	-2.38	31.71	-3.72	-22.53	17.96	9.32	7.75	6.75	-31.37	2.73	-3.90	13.08	-11.43	4.55	7.17
